<?xml version="1.0" encoding="UTF-8"?>
<!-- Generated by Copilot -->
<svg width="24" height="24" viewBox="0 0 24 24" fill="none" xmlns="http://www.w3.org/2000/svg">
  <path d="M20.7092 3.29078C20.3141 2.8957 19.684 2.8957 19.289 3.29078L11.9995 10.5803L13.4193 12.0001L20.7092 4.71021C21.1043 4.31569 21.1043 3.68559 20.7092 3.29078Z" fill="#3498db"/>
  <path d="M11.1893 11.3894L3.70755 18.8712C3.31246 19.2662 3.31246 19.8963 3.70755 20.2914C4.10235 20.6865 4.73245 20.6865 5.12697 20.2914L12.6087 12.8096L11.1893 11.3894Z" fill="#3498db"/>
  <path fill-rule="evenodd" clip-rule="evenodd" d="M9.35907 14.6404L4 20C4 20 4.5 21.5 6.5 21.5C8.5 21.5 9 20 9 20L14.3591 14.6404L9.35907 14.6404Z" fill="#2980b9"/>
</svg>
