<?xml version="1.0" encoding="UTF-8"?>
<!-- Generated by Copilot -->
<svg width="24" height="24" viewBox="0 0 24 24" fill="none" xmlns="http://www.w3.org/2000/svg">
    <!-- Main cell outline -->
    <path d="M12 8C14.2091 8 16 9.79086 16 12C16 14.2091 14.2091 16 12 16C9.79086 16 8 14.2091 8 12C8 9.79086 9.79086 8 12 8Z" stroke="currentColor" stroke-width="1.5" stroke-dasharray="2 2"/>

    <!-- Segmentation boundary -->
    <path d="M12 6C15.3137 6 18 8.68629 18 12C18 15.3137 15.3137 18 12 18C8.68629 18 6 15.3137 6 12C6 8.68629 8.68629 6 12 6Z" stroke="currentColor" stroke-width="1.5"/>

    <!-- AI assistance indicators -->
    <circle cx="12" cy="12" r="1" fill="currentColor"/>
    <circle cx="15" cy="12" r="0.5" fill="currentColor"/>
    <circle cx="9" cy="12" r="0.5" fill="currentColor"/>

    <!-- Selection tool cursor -->
    <path d="M19 5L20 4M20 4L21 5M20 4V7" stroke="currentColor" stroke-width="1.5" stroke-linecap="round" stroke-linejoin="round"/>
</svg>
